<svg id="Capa_1" data-name="Capa 1" xmlns="http://www.w3.org/2000/svg" xmlns:xlink="http://www.w3.org/1999/xlink" viewBox="0 0 246.08 229.85"><defs><style>.cls-1{fill:url(#Degradado_sin_nombre_3);}.cls-2{fill:url(#Degradado_sin_nombre_4);}.cls-3{fill:#fff;opacity:0.15;isolation:isolate;}.cls-4{fill:url(#Degradado_sin_nombre_3-2);}.cls-5{fill:url(#Degradado_sin_nombre_4-2);}</style><linearGradient id="Degradado_sin_nombre_3" x1="330.73" y1="121.64" x2="204.17" y2="48.58" gradientTransform="matrix(1, 0, 0, -1, -177, 249)" gradientUnits="userSpaceOnUse"><stop offset="0.04" stop-color="#a9cb60"/><stop offset="1" stop-color="#3aaa35"/></linearGradient><linearGradient id="Degradado_sin_nombre_4" x1="246.51" y1="166.37" x2="246.51" y2="6" gradientTransform="matrix(1, 0, 0, -1, -177, 249)" gradientUnits="userSpaceOnUse"><stop offset="0.04" stop-color="#dedc00"/><stop offset="1" stop-color="#9bc764"/></linearGradient><linearGradient id="Degradado_sin_nombre_3-2" x1="-2609.87" y1="178.21" x2="-2736.43" y2="105.15" gradientTransform="translate(-2504.98 249) rotate(180)" xlink:href="#Degradado_sin_nombre_3"/><linearGradient id="Degradado_sin_nombre_4-2" x1="-2694.08" y1="222.94" x2="-2694.08" y2="62.56" gradientTransform="translate(-2504.98 249) rotate(180)" xlink:href="#Degradado_sin_nombre_4"/></defs><path class="cls-1" d="M16.66,178.71l68,57.34c19,16,48.08,2.53,48.08-22.35h0a29.26,29.26,0,0,0-10.38-22.35L92.46,166.14a12.79,12.79,0,0,1,0-19.56l29.91-25.21A29.24,29.24,0,0,0,132.75,99h0c0-24.87-29.07-38.38-48.08-22.35L16.66,134A29.22,29.22,0,0,0,16.66,178.71Z" transform="translate(-6.27 -13.15)"/><path class="cls-2" d="M77.58,82.63,16.66,134a29.24,29.24,0,0,0,0,44.7l68,57.34c19,16,48.08,2.53,48.08-22.35h0a29.26,29.26,0,0,0-10.38-22.35L92.46,166.14S62.93,145.14,77.58,82.63Z" transform="translate(-6.27 -13.15)"/><path class="cls-3" d="M92.45,146.58a12.79,12.79,0,0,0,0,19.56S62.73,145.59,77.58,82.62C77.58,82.63,71.29,129.72,92.45,146.58Z" transform="translate(-6.27 -13.15)"/><path class="cls-4" d="M242,122.14l-68,57.34c-19,16-48.09,2.53-48.09-22.35h0a29.26,29.26,0,0,1,10.39-22.35l29.9-25.22a12.78,12.78,0,0,0,0-19.55l-29.9-25.22a29.22,29.22,0,0,1-10.39-22.35h0c0-24.87,29.08-38.39,48.09-22.35l68,57.35A29.24,29.24,0,0,1,242,122.14Z" transform="translate(-6.27 -13.15)"/><path class="cls-5" d="M181,26.06,242,77.45a29.25,29.25,0,0,1,0,44.7L174,179.5c-19,16-48.09,2.52-48.09-22.36h0a29.26,29.26,0,0,1,10.39-22.35l29.9-25.21S195.69,88.57,181,26.06Z" transform="translate(-6.27 -13.15)"/><path class="cls-3" d="M166.16,90a12.77,12.77,0,0,1,0,19.55S195.88,89,181,26.05C181,26.06,187.32,73.14,166.16,90Z" transform="translate(-6.27 -13.15)"/></svg>